<svg width="717" height="488" viewBox="0 0 717 488" fill="none" xmlns="http://www.w3.org/2000/svg">
<rect x="1" y="50" width="680" height="394" rx="23" fill="#F9FFF6" stroke="url(#paint0_linear_188_936)" stroke-width="2"/>
<line x1="316" y1="152.5" x2="41" y2="152.5" stroke="#97E568"/>
<line x1="41.5" y1="54" x2="41.5" y2="440" stroke="#97E568"/>
<line x1="303" y1="342.5" x2="41" y2="342.5" stroke="#97E568"/>
<line x1="242.5" y1="152" x2="242.5" y2="343" stroke="#97E568"/>
<line x1="316" y1="245.5" x2="41" y2="245.5" stroke="#97E568"/>
<line x1="40.79" y1="245.546" x2="241.79" y2="152.546" stroke="#97E568"/>
<line x1="41.2182" y1="245.55" x2="241.218" y2="342.55" stroke="#97E568"/>
<circle cx="41" cy="245" r="3" fill="#A6DD84"/>
<circle cx="242" cy="152" r="2" fill="#A2DB80"/>
<circle cx="242" cy="342" r="2" fill="#A2DB80"/>
<circle cx="41" cy="245" r="9.5" stroke="url(#paint1_linear_188_936)"/>
<g filter="url(#filter0_d_188_936)">
<rect x="106.857" y="95.37" width="73.9141" height="54.9141" rx="9.14705" transform="rotate(-8.58863 106.857 95.37)" fill="#FEFEFF" stroke="url(#paint2_linear_188_936)" stroke-width="1.08589"/>
<circle cx="147.994" cy="116.925" r="17.1" transform="rotate(81.4114 147.994 116.925)" stroke="url(#paint3_linear_188_936)" stroke-width="1.8"/>
<g clip-path="url(#clip0_188_936)">
<path d="M150.622 113.163L145.776 114.202C145.347 114.294 144.973 114.552 144.735 114.92C144.497 115.288 144.415 115.735 144.507 116.164C144.599 116.592 144.857 116.967 145.225 117.205C145.593 117.443 146.04 117.525 146.469 117.433L149.7 116.74C150.128 116.648 150.575 116.731 150.943 116.969C151.311 117.207 151.57 117.581 151.661 118.009C151.753 118.438 151.671 118.885 151.433 119.253C151.195 119.621 150.821 119.879 150.392 119.971L145.546 121.01M149.123 121.933L147.045 112.24M140.915 115.768C140.684 115.262 140.583 114.706 140.624 114.151C140.664 113.596 140.844 113.061 141.147 112.594C141.45 112.127 141.865 111.744 142.355 111.481C142.845 111.217 143.394 111.082 143.95 111.087C144.145 110.568 144.467 110.105 144.886 109.743C145.306 109.38 145.811 109.129 146.353 109.013C146.895 108.897 147.458 108.919 147.99 109.077C148.521 109.236 149.005 109.526 149.395 109.92C149.901 109.686 150.458 109.585 151.013 109.624C151.569 109.664 152.106 109.843 152.574 110.146C153.042 110.448 153.426 110.864 153.69 111.355C153.954 111.846 154.089 112.396 154.084 112.953C154.603 113.147 155.066 113.469 155.428 113.889C155.791 114.309 156.042 114.813 156.158 115.356C156.274 115.898 156.252 116.461 156.093 116.992C155.935 117.524 155.645 118.007 155.251 118.397C155.484 118.903 155.585 119.459 155.546 120.014C155.507 120.569 155.328 121.105 155.026 121.572C154.724 122.04 154.31 122.423 153.82 122.688C153.331 122.952 152.782 123.089 152.226 123.085C152.032 123.606 151.711 124.07 151.29 124.434C150.87 124.797 150.364 125.049 149.821 125.166C149.277 125.282 148.713 125.26 148.18 125.1C147.647 124.941 147.164 124.65 146.773 124.254C146.268 124.486 145.712 124.588 145.157 124.549C144.602 124.509 144.066 124.33 143.599 124.029C143.131 123.727 142.747 123.312 142.483 122.823C142.219 122.333 142.082 121.785 142.086 121.228C141.563 121.036 141.098 120.714 140.732 120.293C140.367 119.872 140.114 119.365 139.998 118.82C139.881 118.276 139.904 117.71 140.064 117.176C140.225 116.643 140.517 116.158 140.915 115.768Z" stroke="#A6DC84" stroke-width="1.21302" stroke-linecap="round" stroke-linejoin="round"/>
</g>
<rect x="198.543" y="104.543" width="436.914" height="288.914" rx="24.1471" fill="#FEFEFF" stroke="url(#paint4_linear_188_936)" stroke-width="1.08589"/>
<rect x="225" y="131" width="384" height="235" rx="16.69" fill="#F8FEF5"/>
<path d="M244.428 168.129C243.599 168.129 243.071 167.586 242.842 166.5L242.514 164.915C242.409 164.4 242.29 164.01 242.157 163.743C242.033 163.477 241.857 163.296 241.628 163.201C241.409 163.105 241.104 163.058 240.714 163.058C240.581 163.058 240.476 163.096 240.4 163.172C240.324 163.239 240.285 163.324 240.285 163.429V167C240.285 167.2 240.324 167.338 240.4 167.414C240.476 167.481 240.647 167.538 240.914 167.586L241.442 167.671C241.547 167.691 241.6 167.743 241.6 167.829C241.6 167.943 241.528 168 241.385 168H238.486C238.343 168 238.271 167.948 238.271 167.843C238.271 167.757 238.333 167.7 238.457 167.671L238.786 167.614C238.986 167.576 239.114 167.524 239.171 167.457C239.238 167.391 239.271 167.257 239.271 167.057V158.658C239.271 158.458 239.238 158.325 239.171 158.258C239.114 158.192 238.986 158.139 238.786 158.101L238.457 158.044C238.333 158.016 238.271 157.958 238.271 157.873C238.271 157.768 238.343 157.716 238.486 157.716H241.385C241.947 157.716 242.447 157.825 242.885 158.044C243.323 158.263 243.666 158.568 243.914 158.958C244.161 159.339 244.285 159.782 244.285 160.287C244.285 160.887 244.104 161.429 243.742 161.915C243.38 162.391 242.923 162.729 242.371 162.929C242.304 162.948 242.266 162.982 242.257 163.029C242.257 163.067 242.29 163.101 242.357 163.129C242.661 163.272 242.899 163.472 243.071 163.729C243.252 163.986 243.39 164.329 243.485 164.758L243.799 166.215C243.904 166.71 244.028 167.062 244.171 167.272C244.313 167.481 244.494 167.586 244.713 167.586C244.79 167.586 244.856 167.576 244.913 167.557C244.98 167.529 245.061 167.481 245.156 167.414C245.232 167.367 245.304 167.357 245.37 167.386C245.437 167.405 245.47 167.452 245.47 167.529C245.47 167.691 245.366 167.833 245.156 167.957C244.947 168.071 244.704 168.129 244.428 168.129ZM241.242 162.701C241.89 162.701 242.38 162.486 242.714 162.058C243.047 161.62 243.214 161.039 243.214 160.315C243.214 159.611 243.018 159.063 242.628 158.673C242.247 158.273 241.719 158.073 241.042 158.073C240.538 158.073 240.285 158.263 240.285 158.644V161.915C240.285 162.439 240.604 162.701 241.242 162.701ZM247.717 168.129C247.26 168.129 246.85 167.976 246.489 167.671C246.127 167.367 245.836 166.938 245.617 166.386C245.408 165.824 245.303 165.177 245.303 164.443C245.303 163.691 245.413 163.029 245.632 162.458C245.851 161.887 246.151 161.439 246.531 161.115C246.912 160.791 247.336 160.63 247.803 160.63C248.365 160.63 248.817 160.863 249.16 161.329C249.512 161.787 249.688 162.534 249.688 163.572C249.688 163.886 249.569 164.043 249.331 164.043H246.617C246.427 164.043 246.332 164.153 246.332 164.372C246.332 165.381 246.479 166.138 246.774 166.643C247.07 167.148 247.446 167.4 247.903 167.4C248.265 167.4 248.56 167.272 248.788 167.014C249.017 166.757 249.203 166.324 249.345 165.715C249.374 165.61 249.436 165.557 249.531 165.557C249.645 165.557 249.688 165.653 249.66 165.843C249.507 166.691 249.264 167.286 248.931 167.629C248.598 167.962 248.193 168.129 247.717 168.129ZM246.574 163.686H248.017C248.474 163.686 248.703 163.448 248.703 162.972C248.703 162.353 248.626 161.867 248.474 161.515C248.322 161.163 248.093 160.987 247.788 160.987C247.417 160.987 247.103 161.201 246.846 161.629C246.598 162.058 246.436 162.667 246.36 163.458C246.341 163.61 246.412 163.686 246.574 163.686ZM252.823 168.129C252.737 168.129 252.675 168.076 252.637 167.971L250.738 161.672C250.671 161.444 250.604 161.296 250.538 161.229C250.481 161.163 250.385 161.115 250.252 161.087L250.038 161.044C249.914 161.015 249.852 160.953 249.852 160.858C249.852 160.763 249.919 160.715 250.052 160.715H252.409C252.542 160.715 252.609 160.763 252.609 160.858C252.609 160.963 252.547 161.025 252.423 161.044L252.195 161.072C251.966 161.101 251.823 161.158 251.766 161.244C251.709 161.32 251.709 161.463 251.766 161.672L252.952 165.8C252.98 165.905 253.028 165.957 253.094 165.957C253.161 165.957 253.209 165.905 253.237 165.8L254.394 161.929C254.47 161.672 254.49 161.482 254.451 161.358C254.423 161.225 254.29 161.139 254.052 161.101L253.752 161.044C253.628 161.015 253.566 160.953 253.566 160.858C253.566 160.763 253.633 160.715 253.766 160.715H255.58C255.713 160.715 255.78 160.768 255.78 160.872C255.78 160.968 255.723 161.034 255.608 161.072L255.48 161.115C255.337 161.163 255.213 161.248 255.109 161.372C255.013 161.496 254.918 161.71 254.823 162.015L253.009 167.971C252.971 168.076 252.909 168.129 252.823 168.129ZM258.235 168.129C257.778 168.129 257.368 167.976 257.006 167.671C256.644 167.367 256.354 166.938 256.135 166.386C255.925 165.824 255.821 165.177 255.821 164.443C255.821 163.691 255.93 163.029 256.149 162.458C256.368 161.887 256.668 161.439 257.049 161.115C257.43 160.791 257.854 160.63 258.32 160.63C258.882 160.63 259.335 160.863 259.677 161.329C260.03 161.787 260.206 162.534 260.206 163.572C260.206 163.886 260.087 164.043 259.849 164.043H257.135C256.944 164.043 256.849 164.153 256.849 164.372C256.849 165.381 256.997 166.138 257.292 166.643C257.587 167.148 257.963 167.4 258.42 167.4C258.782 167.4 259.077 167.272 259.306 167.014C259.534 166.757 259.72 166.324 259.863 165.715C259.892 165.61 259.953 165.557 260.049 165.557C260.163 165.557 260.206 165.653 260.177 165.843C260.025 166.691 259.782 167.286 259.449 167.629C259.116 167.962 258.711 168.129 258.235 168.129ZM257.092 163.686H258.535C258.992 163.686 259.22 163.448 259.22 162.972C259.22 162.353 259.144 161.867 258.992 161.515C258.839 161.163 258.611 160.987 258.306 160.987C257.935 160.987 257.62 161.201 257.363 161.629C257.116 162.058 256.954 162.667 256.878 163.458C256.859 163.61 256.93 163.686 257.092 163.686ZM260.998 168C260.855 168 260.784 167.948 260.784 167.843C260.784 167.757 260.846 167.7 260.97 167.671L261.141 167.643C261.341 167.605 261.47 167.548 261.527 167.471C261.593 167.386 261.627 167.243 261.627 167.043V162.244C261.627 162.072 261.598 161.958 261.541 161.901C261.493 161.834 261.403 161.791 261.27 161.772L260.97 161.729C260.846 161.72 260.784 161.667 260.784 161.572C260.784 161.496 260.86 161.444 261.012 161.415C261.308 161.368 261.531 161.291 261.684 161.187C261.846 161.082 262.012 160.953 262.184 160.801C262.269 160.715 262.341 160.672 262.398 160.672C262.484 160.672 262.527 160.73 262.527 160.844V161.487C262.527 161.572 262.555 161.629 262.612 161.658C262.679 161.677 262.75 161.648 262.826 161.572C263.207 161.21 263.541 160.963 263.826 160.829C264.122 160.696 264.431 160.63 264.755 160.63C265.183 160.63 265.526 160.782 265.783 161.087C266.04 161.382 266.169 161.82 266.169 162.401V167.043C266.169 167.243 266.197 167.386 266.255 167.471C266.321 167.548 266.455 167.6 266.655 167.629L266.969 167.671C267.074 167.691 267.126 167.748 267.126 167.843C267.126 167.948 267.069 168 266.955 168H264.555C264.422 168 264.355 167.948 264.355 167.843C264.355 167.748 264.407 167.691 264.512 167.671L264.712 167.643C264.912 167.614 265.04 167.557 265.098 167.471C265.164 167.386 265.198 167.243 265.198 167.043V162.558C265.198 162.091 265.112 161.763 264.94 161.572C264.769 161.382 264.526 161.287 264.212 161.287C263.907 161.287 263.631 161.377 263.384 161.558C263.145 161.729 262.955 161.963 262.812 162.258C262.669 162.544 262.598 162.863 262.598 163.215V167.043C262.598 167.243 262.627 167.386 262.684 167.471C262.75 167.557 262.884 167.61 263.084 167.629L263.469 167.671C263.574 167.691 263.626 167.743 263.626 167.829C263.626 167.943 263.555 168 263.412 168H260.998ZM269.722 168.129C269.484 168.129 269.255 168.076 269.036 167.971C268.817 167.867 268.636 167.7 268.493 167.471C268.35 167.243 268.279 166.938 268.279 166.557V161.587C268.279 161.415 268.25 161.296 268.193 161.229C268.146 161.163 268.055 161.125 267.922 161.115L267.679 161.087C267.517 161.068 267.436 161.006 267.436 160.901C267.436 160.777 267.527 160.715 267.708 160.715H269.036C269.179 160.715 269.25 160.787 269.25 160.929V166.257C269.25 166.695 269.331 167.01 269.493 167.2C269.665 167.381 269.898 167.471 270.193 167.471C270.488 167.471 270.75 167.391 270.979 167.229C271.207 167.057 271.388 166.833 271.521 166.557C271.664 166.272 271.736 165.962 271.736 165.629V161.587C271.736 161.415 271.707 161.296 271.65 161.229C271.602 161.163 271.512 161.125 271.379 161.115L271.136 161.087C270.974 161.068 270.893 161.006 270.893 160.901C270.893 160.777 270.983 160.715 271.164 160.715H272.493C272.636 160.715 272.707 160.787 272.707 160.929V166.472C272.707 166.643 272.731 166.762 272.778 166.829C272.836 166.886 272.931 166.924 273.064 166.943L273.364 166.986C273.488 166.995 273.55 167.043 273.55 167.129C273.55 167.214 273.474 167.272 273.321 167.3C273.026 167.338 272.788 167.414 272.607 167.529C272.436 167.643 272.283 167.781 272.15 167.943C272.064 168.029 271.993 168.071 271.936 168.071C271.85 168.071 271.807 168.014 271.807 167.9V167.243C271.807 167.167 271.779 167.124 271.721 167.114C271.674 167.095 271.621 167.114 271.564 167.172C271.212 167.524 270.898 167.771 270.622 167.914C270.355 168.057 270.055 168.129 269.722 168.129ZM276.508 168.129C276.051 168.129 275.641 167.976 275.28 167.671C274.918 167.367 274.627 166.938 274.408 166.386C274.199 165.824 274.094 165.177 274.094 164.443C274.094 163.691 274.204 163.029 274.423 162.458C274.642 161.887 274.942 161.439 275.322 161.115C275.703 160.791 276.127 160.63 276.594 160.63C277.156 160.63 277.608 160.863 277.951 161.329C278.303 161.787 278.479 162.534 278.479 163.572C278.479 163.886 278.36 164.043 278.122 164.043H275.408C275.218 164.043 275.122 164.153 275.122 164.372C275.122 165.381 275.27 166.138 275.565 166.643C275.86 167.148 276.237 167.4 276.694 167.4C277.056 167.4 277.351 167.272 277.579 167.014C277.808 166.757 277.994 166.324 278.136 165.715C278.165 165.61 278.227 165.557 278.322 165.557C278.436 165.557 278.479 165.653 278.451 165.843C278.298 166.691 278.055 167.286 277.722 167.629C277.389 167.962 276.984 168.129 276.508 168.129ZM275.365 163.686H276.808C277.265 163.686 277.494 163.448 277.494 162.972C277.494 162.353 277.417 161.867 277.265 161.515C277.113 161.163 276.884 160.987 276.579 160.987C276.208 160.987 275.894 161.201 275.637 161.629C275.389 162.058 275.227 162.667 275.151 163.458C275.132 163.61 275.203 163.686 275.365 163.686Z" fill="black"/>
<path d="M568.869 163.32L572.584 167.035L576.299 163.32" stroke="#9E8ABB" stroke-width="0.825575" stroke-linecap="round" stroke-linejoin="round"/>
<path d="M517.626 169H516.725V159.909H517.626L520.94 167.921L524.254 159.909H525.168V169H524.267V164.683C524.267 164.285 524.267 163.938 524.267 163.642C524.275 163.346 524.279 163.088 524.279 162.867C524.288 162.647 524.296 162.453 524.305 162.283C524.313 162.106 524.326 161.936 524.343 161.776L521.384 169H520.508L517.55 161.814C517.575 161.983 517.592 162.309 517.601 162.791C517.618 163.265 517.626 163.849 517.626 164.543V169ZM526.754 165.927C526.754 165.293 526.889 164.734 527.16 164.251C527.431 163.769 527.803 163.388 528.277 163.109C528.751 162.829 529.284 162.69 529.877 162.69C530.478 162.69 531.011 162.829 531.477 163.109C531.951 163.388 532.323 163.769 532.594 164.251C532.865 164.734 533 165.293 533 165.927C533 166.545 532.865 167.1 532.594 167.591C532.323 168.073 531.951 168.454 531.477 168.733C531.011 169.013 530.478 169.152 529.877 169.152C529.284 169.152 528.751 169.013 528.277 168.733C527.803 168.454 527.431 168.073 527.16 167.591C526.889 167.1 526.754 166.545 526.754 165.927ZM527.642 165.915C527.642 166.397 527.735 166.825 527.922 167.197C528.116 167.561 528.379 167.849 528.709 168.06C529.047 168.264 529.437 168.365 529.877 168.365C530.317 168.365 530.702 168.264 531.032 168.06C531.371 167.849 531.633 167.561 531.82 167.197C532.014 166.825 532.112 166.397 532.112 165.915C532.112 165.441 532.014 165.022 531.82 164.658C531.633 164.294 531.371 164.006 531.032 163.794C530.702 163.583 530.317 163.477 529.877 163.477C529.437 163.477 529.047 163.583 528.709 163.794C528.379 164.006 528.116 164.294 527.922 164.658C527.735 165.022 527.642 165.441 527.642 165.915ZM535.278 169H534.402V162.855H535.163L535.29 163.921C535.493 163.532 535.781 163.231 536.154 163.02C536.535 162.8 536.949 162.69 537.398 162.69C538.244 162.69 538.854 162.922 539.226 163.388C539.599 163.854 539.785 164.471 539.785 165.242V169H538.909V165.432C538.909 164.713 538.757 164.209 538.452 163.921C538.156 163.633 537.753 163.49 537.246 163.49C536.619 163.49 536.133 163.701 535.785 164.124C535.447 164.539 535.278 165.094 535.278 165.788V169ZM540.845 162.855H544.172V163.591H540.845V162.855ZM542.94 169H542.077V160.912H542.94V169ZM546.189 168.987H545.313V159.744H546.189V163.921C546.384 163.549 546.663 163.253 547.027 163.033C547.399 162.804 547.844 162.69 548.36 162.69C549.173 162.69 549.765 162.922 550.138 163.388C550.51 163.854 550.696 164.471 550.696 165.242V169H549.82V165.432C549.82 164.95 549.752 164.569 549.617 164.289C549.482 164.002 549.291 163.799 549.046 163.68C548.8 163.553 548.517 163.49 548.195 163.49C547.755 163.49 547.387 163.587 547.09 163.782C546.794 163.976 546.57 164.239 546.417 164.569C546.265 164.89 546.189 165.25 546.189 165.648V168.987ZM553.357 169H552.48V159.744H553.357V169ZM555.347 162.855L557.658 169.127L557.01 169.635L554.42 162.855H555.347ZM554.598 171.679V170.955H555.271C555.448 170.955 555.622 170.938 555.791 170.905C555.969 170.879 556.13 170.807 556.274 170.689C556.426 170.57 556.549 170.371 556.642 170.092L559.27 162.855H560.172L557.353 170.409C557.175 170.892 556.934 171.239 556.629 171.45C556.333 171.662 555.965 171.768 555.524 171.768C555.347 171.768 555.182 171.759 555.029 171.743C554.877 171.734 554.733 171.713 554.598 171.679Z" fill="black"/>
<g clip-path="url(#clip1_188_936)">
<path d="M600.826 185.974L508.08 241.275L446.417 203.592L360.773 271.617L304.494 241.764L260.449 288.745L220.283 332.577H600.826V185.974Z" fill="url(#paint5_linear_188_936)"/>
<path d="M220.283 332.577L304.004 241.275L361.263 271.617L446.906 203.592L508.08 241.275L600.575 186.463" stroke="#1E7200" stroke-width="1.37459"/>
</g>
<path d="M237.869 342.201V341.831H238.794V342.201C238.794 342.764 238.943 343.218 239.243 343.562C239.542 343.896 239.978 344.064 240.551 344.064C241.15 344.064 241.59 343.892 241.872 343.548C242.163 343.205 242.308 342.751 242.308 342.187V335.343H243.26V342.214C243.26 342.778 243.145 343.267 242.916 343.681C242.687 344.095 242.365 344.412 241.951 344.632C241.546 344.852 241.079 344.962 240.551 344.962C239.987 344.962 239.503 344.848 239.098 344.619C238.692 344.39 238.384 344.068 238.173 343.654C237.97 343.231 237.869 342.747 237.869 342.201ZM247.128 344.962C246.449 344.962 245.917 344.786 245.529 344.434C245.15 344.081 244.961 343.628 244.961 343.073C244.961 342.483 245.172 342.011 245.595 341.659C246.018 341.307 246.604 341.1 247.352 341.038L249.466 340.866V340.655C249.466 340.232 249.392 339.902 249.242 339.664C249.092 339.417 248.889 339.245 248.634 339.149C248.379 339.052 248.092 339.003 247.775 339.003C247.211 339.003 246.775 339.122 246.467 339.36C246.159 339.598 246.005 339.933 246.005 340.364H245.172C245.172 339.933 245.282 339.558 245.503 339.241C245.723 338.924 246.031 338.677 246.427 338.501C246.824 338.325 247.282 338.237 247.802 338.237C248.304 338.237 248.744 338.325 249.123 338.501C249.502 338.669 249.801 338.933 250.021 339.294C250.25 339.646 250.365 340.104 250.365 340.668V344.804H249.599L249.48 343.681C249.286 344.086 248.978 344.403 248.555 344.632C248.141 344.852 247.665 344.962 247.128 344.962ZM247.339 344.222C248.017 344.222 248.541 344.006 248.911 343.575C249.281 343.143 249.466 342.584 249.466 341.897V341.553L247.577 341.699C246.978 341.751 246.546 341.901 246.282 342.148C246.018 342.394 245.886 342.694 245.886 343.046C245.886 343.434 246.018 343.729 246.282 343.932C246.546 344.125 246.899 344.222 247.339 344.222ZM253.106 344.804H252.194V338.409H252.987L253.119 339.519C253.331 339.113 253.63 338.801 254.018 338.58C254.414 338.351 254.846 338.237 255.312 338.237C256.193 338.237 256.828 338.479 257.215 338.964C257.603 339.448 257.796 340.091 257.796 340.893V344.804H256.885V341.091C256.885 340.342 256.726 339.818 256.409 339.519C256.101 339.219 255.682 339.069 255.154 339.069C254.502 339.069 253.996 339.29 253.634 339.73C253.282 340.162 253.106 340.738 253.106 341.461V344.804Z" fill="#1E7200"/>
<path d="M296.892 335.343V344.804H295.941V335.343H296.892ZM301.516 336.215H295.98V335.343H301.516V336.215ZM300.763 340.642H295.98V339.783H300.763V340.642ZM305.095 344.962C304.479 344.962 303.933 344.821 303.457 344.539C302.99 344.257 302.625 343.865 302.36 343.363C302.096 342.861 301.964 342.276 301.964 341.606C301.964 340.945 302.092 340.364 302.347 339.862C302.611 339.351 302.973 338.955 303.431 338.673C303.889 338.382 304.422 338.237 305.029 338.237C305.611 338.237 306.117 338.365 306.549 338.62C306.989 338.876 307.328 339.232 307.566 339.69C307.813 340.14 307.936 340.668 307.936 341.276V341.725H302.466L302.492 341.064H307.024C307.024 340.448 306.839 339.955 306.469 339.585C306.108 339.206 305.628 339.016 305.029 339.016C304.589 339.016 304.201 339.118 303.867 339.32C303.541 339.523 303.29 339.814 303.113 340.192C302.937 340.562 302.849 341.003 302.849 341.514C302.849 342.359 303.043 343.015 303.431 343.482C303.827 343.949 304.386 344.183 305.109 344.183C305.628 344.183 306.055 344.072 306.39 343.852C306.725 343.632 306.95 343.311 307.064 342.888H307.936C307.769 343.557 307.443 344.072 306.958 344.434C306.474 344.786 305.853 344.962 305.095 344.962ZM310.186 344.804H309.394V335.172H310.305V339.651C310.526 339.175 310.843 338.823 311.257 338.594C311.679 338.356 312.164 338.237 312.71 338.237C313.335 338.237 313.864 338.387 314.296 338.686C314.736 338.977 315.071 339.378 315.3 339.888C315.538 340.399 315.657 340.976 315.657 341.619C315.657 342.254 315.538 342.826 315.3 343.337C315.062 343.839 314.723 344.235 314.282 344.526C313.842 344.817 313.309 344.962 312.684 344.962C312.155 344.962 311.679 344.843 311.257 344.605C310.834 344.359 310.508 343.989 310.279 343.496L310.186 344.804ZM310.319 341.593C310.319 342.086 310.407 342.527 310.583 342.914C310.759 343.293 311.01 343.592 311.336 343.813C311.671 344.024 312.071 344.13 312.538 344.13C313.005 344.13 313.402 344.024 313.727 343.813C314.053 343.592 314.3 343.293 314.467 342.914C314.644 342.527 314.732 342.086 314.732 341.593C314.732 341.1 314.644 340.664 314.467 340.285C314.3 339.906 314.053 339.607 313.727 339.386C313.402 339.166 313.005 339.056 312.538 339.056C312.071 339.056 311.671 339.166 311.336 339.386C311.01 339.607 310.759 339.906 310.583 340.285C310.407 340.664 310.319 341.1 310.319 341.593Z" fill="#1E7200"/>
<path d="M354.066 344.804H353.128V335.343H354.066L357.515 343.681L360.963 335.343H361.914V344.804H360.976V340.311C360.976 339.897 360.976 339.536 360.976 339.228C360.985 338.92 360.99 338.651 360.99 338.422C360.998 338.193 361.007 337.99 361.016 337.814C361.025 337.629 361.038 337.453 361.056 337.286L357.977 344.804H357.065L353.987 337.325C354.013 337.501 354.031 337.841 354.04 338.343C354.057 338.836 354.066 339.444 354.066 340.166V344.804ZM365.85 344.962C365.172 344.962 364.639 344.786 364.251 344.434C363.873 344.081 363.683 343.628 363.683 343.073C363.683 342.483 363.895 342.011 364.317 341.659C364.74 341.307 365.326 341.1 366.075 341.038L368.189 340.866V340.655C368.189 340.232 368.114 339.902 367.964 339.664C367.814 339.417 367.612 339.245 367.356 339.149C367.101 339.052 366.815 339.003 366.497 339.003C365.934 339.003 365.498 339.122 365.189 339.36C364.881 339.598 364.727 339.933 364.727 340.364H363.895C363.895 339.933 364.005 339.558 364.225 339.241C364.445 338.924 364.753 338.677 365.15 338.501C365.546 338.325 366.004 338.237 366.524 338.237C367.026 338.237 367.466 338.325 367.845 338.501C368.224 338.669 368.523 338.933 368.744 339.294C368.973 339.646 369.087 340.104 369.087 340.668V344.804H368.321L368.202 343.681C368.008 344.086 367.7 344.403 367.277 344.632C366.863 344.852 366.387 344.962 365.85 344.962ZM366.061 344.222C366.74 344.222 367.264 344.006 367.634 343.575C368.004 343.143 368.189 342.584 368.189 341.897V341.553L366.299 341.699C365.7 341.751 365.269 341.901 365.004 342.148C364.74 342.394 364.608 342.694 364.608 343.046C364.608 343.434 364.74 343.729 365.004 343.932C365.269 344.125 365.621 344.222 366.061 344.222ZM374.259 338.329V339.149H373.757C373.167 339.149 372.696 339.329 372.344 339.69C372 340.051 371.828 340.54 371.828 341.157V344.804H370.917V338.409H371.775L371.855 339.664H371.762C371.85 339.25 372.066 338.915 372.41 338.66C372.753 338.395 373.172 338.263 373.665 338.263C373.762 338.263 373.859 338.268 373.956 338.277C374.052 338.285 374.154 338.303 374.259 338.329Z" fill="#1E7200"/>
<path d="M411.315 344.804H410.35L413.825 335.343H415.001L418.515 344.804H417.524L416.6 342.293H412.239L411.315 344.804ZM414.287 336.678L412.53 341.461H416.296L414.525 336.678C414.508 336.607 414.486 336.537 414.459 336.466C414.433 336.396 414.415 336.339 414.406 336.295C414.397 336.339 414.38 336.4 414.353 336.48C414.336 336.55 414.314 336.616 414.287 336.678ZM419.632 347.591V338.409H420.425L420.518 339.703C420.747 339.21 421.073 338.845 421.495 338.607C421.927 338.36 422.407 338.237 422.935 338.237C423.552 338.237 424.081 338.382 424.521 338.673C424.961 338.964 425.301 339.36 425.538 339.862C425.776 340.364 425.895 340.937 425.895 341.58C425.895 342.223 425.776 342.8 425.538 343.311C425.309 343.821 424.975 344.227 424.534 344.526C424.103 344.817 423.57 344.962 422.935 344.962C422.389 344.962 421.909 344.848 421.495 344.619C421.081 344.381 420.764 344.033 420.544 343.575V347.591H419.632ZM420.557 341.606C420.557 342.091 420.645 342.527 420.821 342.914C420.998 343.293 421.249 343.592 421.575 343.813C421.909 344.033 422.31 344.143 422.777 344.143C423.244 344.143 423.64 344.033 423.966 343.813C424.292 343.592 424.539 343.293 424.706 342.914C424.882 342.527 424.97 342.091 424.97 341.606C424.97 341.113 424.882 340.677 424.706 340.298C424.539 339.91 424.292 339.611 423.966 339.4C423.64 339.179 423.244 339.069 422.777 339.069C422.31 339.069 421.909 339.179 421.575 339.4C421.249 339.611 420.998 339.91 420.821 340.298C420.645 340.677 420.557 341.113 420.557 341.606ZM430.691 338.329V339.149H430.189C429.599 339.149 429.128 339.329 428.775 339.69C428.432 340.051 428.26 340.54 428.26 341.157V344.804H427.348V338.409H428.207L428.286 339.664H428.194C428.282 339.25 428.498 338.915 428.841 338.66C429.185 338.395 429.603 338.263 430.097 338.263C430.193 338.263 430.29 338.268 430.387 338.277C430.484 338.285 430.585 338.303 430.691 338.329Z" fill="#1E7200"/>
<path d="M468.44 344.804H467.502V335.343H468.44L471.889 343.681L475.337 335.343H476.288V344.804H475.35V340.311C475.35 339.897 475.35 339.536 475.35 339.228C475.359 338.92 475.364 338.651 475.364 338.422C475.372 338.193 475.381 337.99 475.39 337.814C475.399 337.629 475.412 337.453 475.43 337.286L472.351 344.804H471.439L468.361 337.325C468.387 337.501 468.405 337.841 468.414 338.343C468.431 338.836 468.44 339.444 468.44 340.166V344.804ZM480.224 344.962C479.546 344.962 479.013 344.786 478.625 344.434C478.247 344.081 478.057 343.628 478.057 343.073C478.057 342.483 478.269 342.011 478.691 341.659C479.114 341.307 479.7 341.1 480.449 341.038L482.563 340.866V340.655C482.563 340.232 482.488 339.902 482.338 339.664C482.188 339.417 481.986 339.245 481.73 339.149C481.475 339.052 481.189 339.003 480.872 339.003C480.308 339.003 479.872 339.122 479.563 339.36C479.255 339.598 479.101 339.933 479.101 340.364H478.269C478.269 339.933 478.379 339.558 478.599 339.241C478.819 338.924 479.127 338.677 479.524 338.501C479.92 338.325 480.378 338.237 480.898 338.237C481.4 338.237 481.84 338.325 482.219 338.501C482.598 338.669 482.897 338.933 483.118 339.294C483.347 339.646 483.461 340.104 483.461 340.668V344.804H482.695L482.576 343.681C482.382 344.086 482.074 344.403 481.651 344.632C481.237 344.852 480.761 344.962 480.224 344.962ZM480.435 344.222C481.114 344.222 481.638 344.006 482.008 343.575C482.378 343.143 482.563 342.584 482.563 341.897V341.553L480.673 341.699C480.074 341.751 479.643 341.901 479.378 342.148C479.114 342.394 478.982 342.694 478.982 343.046C478.982 343.434 479.114 343.729 479.378 343.932C479.643 344.125 479.995 344.222 480.435 344.222ZM485.281 338.409L487.686 344.936L487.012 345.464L484.316 338.409H485.281ZM484.501 347.591V346.838H485.202C485.387 346.838 485.567 346.821 485.743 346.785C485.928 346.759 486.096 346.684 486.245 346.561C486.404 346.438 486.532 346.231 486.629 345.94L489.364 338.409H490.302L487.368 346.27C487.183 346.772 486.932 347.133 486.615 347.354C486.307 347.574 485.924 347.684 485.466 347.684C485.281 347.684 485.109 347.675 484.951 347.658C484.792 347.649 484.642 347.627 484.501 347.591Z" fill="#1E7200"/>
<path d="M526.803 342.201V341.831H527.728V342.201C527.728 342.764 527.878 343.218 528.177 343.562C528.477 343.896 528.913 344.064 529.485 344.064C530.084 344.064 530.525 343.892 530.807 343.548C531.097 343.205 531.243 342.751 531.243 342.187V335.343H532.194V342.214C532.194 342.778 532.08 343.267 531.851 343.681C531.622 344.095 531.3 344.412 530.886 344.632C530.481 344.852 530.014 344.962 529.485 344.962C528.922 344.962 528.437 344.848 528.032 344.619C527.627 344.39 527.319 344.068 527.107 343.654C526.905 343.231 526.803 342.747 526.803 342.201ZM538.718 338.409H539.63V344.804H538.837L538.718 343.72C538.542 344.09 538.247 344.39 537.833 344.619C537.428 344.848 536.974 344.962 536.472 344.962C535.723 344.962 535.146 344.724 534.741 344.249C534.345 343.773 534.146 343.148 534.146 342.372V338.395H535.071V342.082C535.071 342.839 535.225 343.372 535.534 343.681C535.851 343.989 536.26 344.143 536.763 344.143C537.379 344.143 537.859 343.945 538.203 343.548C538.546 343.143 538.718 342.562 538.718 341.804V338.409ZM542.441 344.804H541.529V338.409H542.322L542.454 339.519C542.665 339.113 542.965 338.801 543.352 338.58C543.749 338.351 544.18 338.237 544.647 338.237C545.528 338.237 546.162 338.479 546.55 338.964C546.937 339.448 547.131 340.091 547.131 340.893V344.804H546.219V341.091C546.219 340.342 546.061 339.818 545.744 339.519C545.435 339.219 545.017 339.069 544.488 339.069C543.837 339.069 543.33 339.29 542.969 339.73C542.617 340.162 542.441 340.738 542.441 341.461V344.804Z" fill="#1E7200"/>
<path d="M583.991 342.201V341.831H584.916V342.201C584.916 342.764 585.065 343.218 585.365 343.562C585.664 343.896 586.1 344.064 586.673 344.064C587.272 344.064 587.712 343.892 587.994 343.548C588.285 343.205 588.43 342.751 588.43 342.187V335.343H589.382V342.214C589.382 342.778 589.267 343.267 589.038 343.681C588.809 344.095 588.488 344.412 588.074 344.632C587.668 344.852 587.201 344.962 586.673 344.962C586.109 344.962 585.625 344.848 585.22 344.619C584.814 344.39 584.506 344.068 584.295 343.654C584.092 343.231 583.991 342.747 583.991 342.201ZM595.906 338.409H596.817V344.804H596.024L595.906 343.72C595.729 344.09 595.434 344.39 595.02 344.619C594.615 344.848 594.161 344.962 593.659 344.962C592.911 344.962 592.334 344.724 591.929 344.249C591.532 343.773 591.334 343.148 591.334 342.372V338.395H592.259V342.082C592.259 342.839 592.413 343.372 592.721 343.681C593.038 343.989 593.448 344.143 593.95 344.143C594.567 344.143 595.047 343.945 595.39 343.548C595.734 343.143 595.906 342.562 595.906 341.804V338.409ZM599.668 344.804H598.756V335.172H599.668V344.804Z" fill="#1E7200"/>
</g>
<defs>
<filter id="filter0_d_188_936" x="9.73905" y="0.24446" width="706.724" height="487.249" filterUnits="userSpaceOnUse" color-interpolation-filters="sRGB">
<feFlood flood-opacity="0" result="BackgroundImageFix"/>
<feColorMatrix in="SourceAlpha" type="matrix" values="0 0 0 0 0 0 0 0 0 0 0 0 0 0 0 0 0 0 127 0" result="hardAlpha"/>
<feOffset dx="-8.68712" dy="4.34356"/>
<feGaussianBlur stdDeviation="44.575"/>
<feComposite in2="hardAlpha" operator="out"/>
<feColorMatrix type="matrix" values="0 0 0 0 0.682884 0 0 0 0 0.841699 0 0 0 0 0.614821 0 0 0 0.7 0"/>
<feBlend mode="normal" in2="BackgroundImageFix" result="effect1_dropShadow_188_936"/>
<feBlend mode="normal" in="SourceGraphic" in2="effect1_dropShadow_188_936" result="shape"/>
</filter>
<linearGradient id="paint0_linear_188_936" x1="712.5" y1="-31" x2="41.0449" y2="362.019" gradientUnits="userSpaceOnUse">
<stop stop-color="#E2FFD1"/>
<stop offset="1" stop-color="#90D06A"/>
</linearGradient>
<linearGradient id="paint1_linear_188_936" x1="39.8123" y1="231.375" x2="24.3442" y2="246.453" gradientUnits="userSpaceOnUse">
<stop stop-color="#E2FFD1"/>
<stop offset="1" stop-color="#90D06A"/>
</linearGradient>
<linearGradient id="paint2_linear_188_936" x1="139.285" y1="84.7642" x2="97.4561" y2="139.373" gradientUnits="userSpaceOnUse">
<stop stop-color="#E2FFD1"/>
<stop offset="1" stop-color="#90D06A"/>
</linearGradient>
<linearGradient id="paint3_linear_188_936" x1="162.921" y1="98.9474" x2="129.991" y2="114.571" gradientUnits="userSpaceOnUse">
<stop stop-color="#E2FFD1"/>
<stop offset="1" stop-color="#90D06A"/>
</linearGradient>
<linearGradient id="paint4_linear_188_936" x1="542.5" y1="51.5" x2="282.23" y2="271.053" gradientUnits="userSpaceOnUse">
<stop stop-color="#E2FFD1"/>
<stop offset="1" stop-color="#90D06A"/>
</linearGradient>
<linearGradient id="paint5_linear_188_936" x1="410.817" y1="199.256" x2="410.817" y2="332.052" gradientUnits="userSpaceOnUse">
<stop stop-color="#D1FFC0"/>
<stop offset="1" stop-color="#D1FFC0" stop-opacity="0"/>
</linearGradient>
<clipPath id="clip0_188_936">
<rect width="19.8268" height="19.8268" fill="white" transform="translate(136.314 109.471) rotate(-12.1014)"/>
</clipPath>
<clipPath id="clip1_188_936">
<rect width="363.127" height="137.029" fill="white" transform="translate(237.937 182.548)"/>
</clipPath>
</defs>
</svg>
