<svg width="35" height="34" viewBox="0 0 35 34" fill="none" xmlns="http://www.w3.org/2000/svg">
<path fill-rule="evenodd" clip-rule="evenodd" d="M0.206055 16.9741C0.206055 26.3223 7.78413 33.9003 17.1324 33.9003C26.4806 33.9003 34.0592 26.3223 34.0592 16.9741C34.0592 7.62582 26.4806 0.0477295 17.1324 0.0477295C7.78413 0.0477295 0.206055 7.62582 0.206055 16.9741Z" fill="#0C0C4F"/>
<path fill-rule="evenodd" clip-rule="evenodd" d="M9.66567 12.9864L10.0835 11.6956C10.1684 11.433 10.3756 11.2287 10.6392 11.1482L11.9364 10.7492C12.1159 10.6944 12.1174 10.4411 11.9393 10.3833L10.6479 9.96548C10.3858 9.88057 10.1815 9.67334 10.1005 9.40984L9.70206 8.11264C9.64723 7.93356 9.39391 7.93161 9.33614 8.11022L8.91831 9.4011C8.83338 9.66316 8.62617 9.86746 8.36265 9.94851L7.06545 10.3469C6.8859 10.4023 6.88395 10.6551 7.06254 10.7128L8.35391 11.1307C8.61597 11.2156 8.82029 11.4233 8.90132 11.6868L9.29976 12.9835C9.35459 13.1631 9.60791 13.165 9.66567 12.9864Z" fill="#FAFAFA"/>
<path fill-rule="evenodd" clip-rule="evenodd" d="M30.1703 12.2351C29.6357 11.6371 28.8009 11.3004 27.9895 11.1623C27.1717 11.0297 26.314 11.042 25.5067 11.1855C23.8729 11.4618 22.3888 12.1383 21.0942 12.9728C20.422 13.3824 19.8487 13.8563 19.2548 14.3389C18.9686 14.583 18.7077 14.8429 18.436 15.0991L17.6935 15.8379C16.8868 16.6812 16.0916 17.4492 15.3222 18.0859C14.5498 18.7196 13.8276 19.2009 13.1158 19.537C12.4046 19.8748 11.6435 20.0735 10.6515 20.1053C9.66819 20.14 8.50484 19.9625 7.26046 19.6696C6.00939 19.3779 4.69563 18.9623 3.22754 18.6046C3.73979 20.0257 4.51117 21.2815 5.50155 22.4294C6.50354 23.5575 7.75474 24.5858 9.36203 25.262C10.9461 25.9532 12.9368 26.2013 14.7982 25.827C16.6645 25.4677 18.3022 24.604 19.6261 23.6053C20.9533 22.5964 22.0271 21.4471 22.9323 20.2521C23.1822 19.922 23.3144 19.7372 23.4952 19.4791L23.9951 18.7388C24.3424 18.2808 24.6586 17.7594 25.0025 17.3056C25.6766 16.3554 26.341 15.4062 27.1132 14.5317C27.5019 14.0881 27.9117 13.6639 28.3955 13.2562C28.637 13.0572 28.8976 12.8624 29.1864 12.687C29.4795 12.4977 29.7891 12.3496 30.1703 12.2351Z" fill="#EC796B"/>
<path fill-rule="evenodd" clip-rule="evenodd" d="M30.1703 12.2351C29.5958 10.7854 28.5277 9.56512 27.0943 8.66465C25.6693 7.77405 23.6904 7.31956 21.7295 7.70699C20.7606 7.89436 19.822 8.25509 18.9983 8.73546C18.1784 9.21395 17.4436 9.7899 16.8075 10.4078C16.49 10.7178 16.2018 11.0412 15.9154 11.3664L15.1733 12.3126L14.027 13.8357C12.5657 15.7954 10.9921 18.0921 8.40962 18.7726C5.87443 19.4407 4.77486 18.849 3.22754 18.6046C3.51047 19.335 3.86091 20.0444 4.33604 20.6684C4.80229 21.3051 5.353 21.9031 6.03769 22.4156C6.3837 22.6618 6.74902 22.9047 7.15476 23.1109C7.55864 23.3099 7.99419 23.4852 8.4591 23.6172C9.38384 23.8706 10.425 23.9593 11.433 23.8231C12.4415 23.6885 13.4054 23.3688 14.2481 22.9444C15.0969 22.524 15.8363 22.0119 16.4965 21.4716C17.809 20.3816 18.8298 19.1773 19.6922 17.96C20.1259 17.3514 20.5196 16.7312 20.8838 16.111L21.3124 15.3725C21.4434 15.1566 21.5759 14.9394 21.7106 14.7372C22.2536 13.9245 22.7847 13.2728 23.4298 12.7837C24.066 12.282 24.952 11.9113 26.1357 11.8251C27.3146 11.738 28.6756 11.899 30.1703 12.2351Z" fill="#FAFAFA"/>
<path fill-rule="evenodd" clip-rule="evenodd" d="M23.792 24.28C23.792 25.3447 24.6557 26.2084 25.7203 26.2084C26.7852 26.2084 27.6476 25.3447 27.6476 24.28C27.6476 23.2154 26.7852 22.3517 25.7203 22.3517C24.6557 22.3517 23.792 23.2154 23.792 24.28Z" fill="#EC796B"/>
</svg>
