<svg width="49" height="49" viewBox="0 0 49 49" fill="none" xmlns="http://www.w3.org/2000/svg">
<circle cx="24.5" cy="24.5" r="23.7097" fill="#056F67" stroke="url(#paint0_linear_134_44)" stroke-width="1.58065"/>
<g clip-path="url(#clip0_134_44)">
<path d="M23.4934 34.7895C22.4499 34.7895 21.3916 34.648 20.3386 34.3514C17.347 33.5074 14.8623 31.5498 13.3429 28.8373C11.8249 26.1248 11.4528 22.9835 12.2968 19.9919C12.5192 19.2046 13.3362 18.7476 14.1235 18.9687C14.9109 19.1911 15.3679 20.0081 15.1468 20.7954C14.5172 23.0267 14.7949 25.3685 15.9274 27.3907C17.0599 29.413 18.9123 30.8731 21.1435 31.5027C21.9281 31.7238 22.7182 31.8289 23.4961 31.8289C27.2831 31.8289 30.7735 29.3267 31.8507 25.506C32.0732 24.7186 32.8901 24.2616 33.6775 24.4827C34.4648 24.7052 34.9218 25.5222 34.7007 26.3095C33.2555 31.4339 28.576 34.7895 23.4961 34.7895H23.4934Z" fill="#FEF6E7"/>
<path d="M26.9294 25.9725C26.5317 25.9725 26.1354 25.8134 25.8428 25.498C25.2874 24.898 25.3224 23.9624 25.9223 23.4056L31.0576 18.6479L31.1991 18.5657C32.4664 17.8269 34.0411 17.8255 35.3097 18.563L35.4499 18.6438L40.6175 23.4043C41.2188 23.9584 41.2565 24.8953 40.7038 25.4953C40.1497 26.0966 39.214 26.1357 38.6127 25.5816L33.7094 21.0638C33.4223 20.9384 33.0946 20.9384 32.8075 21.0638L27.9379 25.5775C27.6534 25.8418 27.2921 25.9725 26.9321 25.9725H26.9294Z" fill="#FEF6E7"/>
<path d="M38.0926 23.8601C37.2756 23.8601 36.6123 23.1968 36.6123 22.3798V19.1387C36.6123 18.3217 37.2756 17.6584 38.0926 17.6584C38.9096 17.6584 39.5729 18.3217 39.5729 19.1387V22.3798C39.5729 23.1968 38.9096 23.8601 38.0926 23.8601Z" fill="#FEF6E7"/>
</g>
<defs>
<linearGradient id="paint0_linear_134_44" x1="7.90322" y1="4.74194" x2="52.5565" y2="46.629" gradientUnits="userSpaceOnUse">
<stop stop-color="#099E92"/>
<stop offset="1" stop-color="#033834"/>
</linearGradient>
<clipPath id="clip0_134_44">
<rect width="29.2419" height="17.1313" fill="white" transform="translate(11.8545 17.6585)"/>
</clipPath>
</defs>
</svg>
